<svg xmlns="http://www.w3.org/2000/svg" viewBox="0 0 660.79 302.31"><defs><style>.cls-1{fill:#eb5a5c;}</style></defs><title>Asset 4</title><g id="Layer_2" data-name="Layer 2"><g id="Layer_1-2" data-name="Layer 1"><path class="cls-1" d="M650.78,174c-6.56.21-12.49-2.57-18.82-3.3a3.62,3.62,0,0,1-2-.93c-1.94-1.95-4.43-1.92-6.88-2.08-6.88-.45-13.75-.91-20.63-1.34a52,52,0,0,1-13.74-2.47c12-.53,24-.69,36-.86.21,0,.41-.26.62-.39a15.49,15.49,0,0,0,.47-2.1,12.2,12.2,0,0,0-.12-2c-9.86-4.3-20.42-2.84-30.18-4.4a14.45,14.45,0,0,1-3.72-9.21c-3-1.51-5.64-1.27-8.36-1.2-8.85.25-17.71.36-26.56.47a14.66,14.66,0,0,1-3.59-.55c-.37-.09-.92-.73-.86-1,.12-.61.45-1.47.93-1.67a10,10,0,0,1,3.53-.8c5.4-.08,10.8.06,16.2-.07,3.66-.09,7.3-.22,10.67-2.25,1.57-.95,3.73-1,5.65-1.26s3.93-.12,5.89-.28a8.3,8.3,0,0,0,2-.75c-1-.93-1.25-1.25-1.41-1.23-5.07.66-10.14,1.37-15.21,2.05-4.12.56-8.25,1.6-12.37,1.57-14.46-.11-29,.85-43.37-1.43-.65-.1-1.17-1-2.18-1.95a158.31,158.31,0,0,1,27.84-2.19c5.41-.05,10.85.2,16.24-.18,6.7-.48,13.83.05,18.89-6,.55-.66,1.78-.77,2.7-1.08,3.82-1.31,7.5-2.94,11.18-4.57,1.21-.52,2.47-.91,2.38-2.3-.08-1.1-.61-2.9-1.32-3.11-4.49-1.34-6.86-5.4-10.51-7.77-.65-.42-.95-1.4-1.52-2.29,3.48-1.17,6.49-2.15,9.47-3.23.26-.09.31-.78.53-1.38-5.74-1.11-11.45-2.28-17.18-3.28a35.74,35.74,0,0,0-6.62-.48c-10.06.1-20.12.32-30.19.43a47.36,47.36,0,0,1-5.47-.68c1.4-1.63,2.47-2,3.71-2,4.92-.05,9.84-.07,14.76-.16,12-.24,24-1.17,35.89-2.26l5-6.16L596,83l3.77-2.94L595,76.51c5.52-.45,5.21-5.35,8-8.45-2.17-.9-4.17-1.63-6.07-2.57-.65-.32-1.05-1.17-2-2.23,2.43-.38,4.14-.55,5.79-.94a2.93,2.93,0,0,0,2.3-3.91c-.65-2.62-1.41-5.21-2.12-7.82-6.42-5.74-7-4.82-13.2-5.22a61.32,61.32,0,0,0-6.64.07c-4.17.2-8.34.6-12.52.69-14.26.32-28.52.48-42.78.82-5.39.13-10.78.7-16.18.87-3.92.13-7.86,0-11.8-.1-10.31-.13-20.62-.23-30.93-.45-1.69,0-4.12-.1-4.89-1.14-2.2-2.92-5.15-2.42-8-2.62-19.64-1.37-39.32-1.29-59-2.2-27.53-1.26-55.11-1.12-82.67-1.73-21.89-.49-43.77-1.23-65.66-1.82-12.29-.33-24.6-1-36.88-.72a158.23,158.23,0,0,1-22-.84,20.78,20.78,0,0,0-3,0C170,36.63,155,35.68,140,35c-6.38-.31-12.74-1.11-19.11-1.55-8.35-.58-16.71-.88-25-1.57-8.08-.67-16.13-1.64-24.19-2.56a27.11,27.11,0,0,0-10.41.61,44.87,44.87,0,0,0,9.28,1.9c7.85.75,15.6,1.91,23,4.75a18.36,18.36,0,0,0,6.49,1.13c10.09,0,19.93,2.94,30.07,2.34,2.07-.13,4.2.85,7.62,1.61-4.5,1.73-8,.1-11.07,1.27.18.71.7,1.92.5,2.06-2,1.34-1.34,2.79-.78,3.73,8.1,3.74,16.29,3.94,24.36,4.3,9.52.44,19,1.9,28.54,1.6,1.12,0,1.58.91,1.09,2.06-2.91,1.25-6.38-1.38-9.09,1.25,0,1.7,1.19,2,2.42,2.1,3.18.35,6.55.06,9.48,1.08a32,32,0,0,0,10.13,1.39c6.89.15,13.77.38,20.66.65,1.15,0,2.46.18,2.57,2.28-12.3-.26-24.57-.31-36.81-.82q-29.88-1.24-59.72-3c-6.15-.36-12.26.24-18.37,0a296.25,296.25,0,0,1-44.74-5.17,17.22,17.22,0,0,1-3.3,2.68,29,29,0,0,1-5,1.47A24.21,24.21,0,0,0,59.47,65.4a221.81,221.81,0,0,0,30,3.46,25.36,25.36,0,0,1,9.71,1.89,5.41,5.41,0,0,1-5.1,1.45C84.3,71,74.51,70.13,64.83,68.53c-7.31-1.22-14-1-20,4a19.3,19.3,0,0,1,2.71,3.35l-11.71,1.9c-1.2,1.66-2,2.81-2.67,3.72L20.82,82c-1.07,2.58-3.61,4.1-3.69,7.14a53.13,53.13,0,0,1,5.35,2.6,3.29,3.29,0,0,1,1.72,3.7,22.24,22.24,0,0,0-.29,5c.08,3.21-1.56,5.11-4.47,6a31.24,31.24,0,0,1-5,.83c-1.76.21-3.52.3-5.28.44a9.67,9.67,0,0,0,5,1.42,7.68,7.68,0,0,1,7.16,5.47c1.22,3.33-1.17,5.22-3.61,7l4.2,5.69-1.92,4.63c-6.2,1.12-7.22,1.46-8.7,3,.25,1.32.55,2.84.86,4.43L9.36,140.6c.35,1,.38,1.56.69,1.83,2,1.77,2.33,3.62.57,5.75-.59.72-1.49,1.53-1.5,2.31,0,2.2-1.52,2.1-3,2.42-.48.11-.83.8-1.72,1.72,6,1.8,12,2.31,16.17,6.82-1.27,2-3.07.72-4.66.75s-3.44.12-5.16.15-3.15,0-4.95,0A29.85,29.85,0,0,0,7,166.17a3.19,3.19,0,0,0,1.44,1.2A23.67,23.67,0,0,0,10.51,165c3.61-.26,7.22-.09,10.58,1.91a9.91,9.91,0,0,0,3.48,1.1c8.48,1.32,16.63,4,25.28,4.88,14.17,1.45,28.27,3.66,42.55,4,2.71.07,5.42.09,8.11.37a10.36,10.36,0,0,1,2.94,1.36,14.84,14.84,0,0,1-6,.5c-6.12-.5-12.23-1.54-18.34-1.47-13.33.16-26.52-1.52-39.66-3.12-9.24-1.13-18.45-2.41-27.74-3.06-1.28-.08-1.7.56-1.34,2,4.5.59,9.12,1.13,13.71,1.82,2.66.4,5.26,1.22,7.92,1.52,11,1.24,22,2.32,33,3.54a21.92,21.92,0,0,1,4.08,1.23,16.17,16.17,0,0,1-6.75.66c-9.49-1.24-19-2.67-28.46-4-4.13-.56-8.28-1.06-12.44-1.32-1.89-.12-3.32.87-2.9,3.55,6.82,1.47,13.74,3,20.69,4.43,6.77,1.36,13.74,1.41,20.5,3.17a41.52,41.52,0,0,1-18.12,1.35c-8.53-1.06-17.08-2-25.62-2.94-.9-.1-2-.15-2,1.79,5.9,3.17,12.89,3.2,19.66,5.31l-6.44,2.56,3.5,2.87a27.79,27.79,0,0,0-3.21,1.39c-4,2.46-7.77,3.77-12.23.59a5,5,0,0,0-6.72.76c-.88.9-2.95.66-4.25.9C5,208.35,10,210,14.28,213l-5,1.13c.3,2.84-2.69,2.3-3.76,3.69a10.65,10.65,0,0,0-1,2.57c4.31,1.34,8.8-.6,12.62,2.36l-2.78,2.43a9.4,9.4,0,0,0,1.1,1.89,14.55,14.55,0,0,0,7.82,3.84,33.49,33.49,0,0,1,5,1.23c1.49.55,3.59-.25,4.66,2.27H22.85a11.87,11.87,0,0,1-.51,3.16c-1.55,2-2.77,4.08-1.53,6.73.49,1.05.87,2.15,1.36,3.36-2.49,1.8-6.16,2.42-5,6.79a28.91,28.91,0,0,0,4.69,1.43c8.27,1.18,16.53,2.54,24.84,3.24,11,.93,22.11,1.27,33.16,1.94q18.42,1.11,36.83,2.37a21.13,21.13,0,0,1,5.77,1,69.12,69.12,0,0,0,20.2,4c18.67,1.11,37.35,2,56,2.86,11.55.55,23.18.33,34.64,1.63,22.29,2.52,44.68,3.07,67,4.4,11.53.68,23.1.83,34.62,1.66q26.87,1.92,53.76,2.46c14.51.31,29,.1,43.49,1.41,6.12.55,12.29.6,18.44.7s12.29-.27,18.41,0c13.28.55,26.54,1.53,39.82,2,5.59.19,11.24.89,16.62-.07.11-1.94-.28-3.87.43-5.22,1-2,3.25-2.91,5.58-3.06,1.48-.09,3-.17,4.43-.13,5.65.16,11.31.36,17,.57a35.67,35.67,0,0,0,13-1.49c4.09-1.37,8.42-2.6,12.93-2.12.29,0,.65-.5,1.25-1-10.81-.58-21.35-1.19-31.89-1.71-17.69-.87-35.39-1.65-53.08-2.56-10.57-.55-21.12-1.42-31.68-1.88a429.36,429.36,0,0,1-46.28-4.18,23.73,23.73,0,0,1-3.33-1.18c1.87-.67,2.74-1.06,3.65-1.28,4.17-1,8.32,0,12.47.28,12,.71,24.06,1.45,36.1,2.09,3.91.21,7.84,0,11.75.25,12.53.69,25.05,1.61,37.58,2.17,7.86.34,15.74.25,23.61.26,4.63,0,9.28-.32,13.91-.2,24.59.59,49.19,1.29,73.78,1.91,1.64,0,3.28-.21,5.49-.36-.62-1.58-.73-3.13-1.51-3.61a22.91,22.91,0,0,0-6-2.54c-2.84-.77-5.83-1.07-8.16-3.76-.13-1.16-.2-2.61-.46-4s-.66-2.64-1-4c3.77-1.71,7.25-.78,10.64-.94,3.19-.16,6.4-.31,9.59-.26,6.28.09,6.27.15,10.26-1.68-1.39-.37-2.17-.67-3-.79-2.41-.37-5.25,0-7.17-1.14-4-2.45-8.39-2.5-12.73-3.15a51.88,51.88,0,0,1-6.4-1.43c-.62-.17-1.09-.87-1.82-1.49.62-2.09,1.25-4.16,1.84-6.14,8.46-3.06,16.86-.11,25.18-.83.14-1.63.25-3,.38-4.48a38.55,38.55,0,0,1,5.37-2.58c1.7-.52,3.77.06,5.66-2.12-1.54-.2-2.42-.36-3.31-.43-3.67-.29-7.56.1-11-1-4.64-1.48-9-3.89-13.89-4.67-1.74-.28-2.24-1.78-1.89-4.08.11-.68.34-1.34.6-2.39-1.64-.2-3-.47-4.46-.54-6.15-.3-12.3-.48-18.44-.86a14.56,14.56,0,0,1-4.12-1.24,1.42,1.42,0,0,1-.71-1.19c.17-.64.58-1.56,1.08-1.71a19.57,19.57,0,0,1,4.32-.61c3.19-.15,6.39-.23,9.58-.27,3.43,0,6.87-.11,10.29.08a156.54,156.54,0,0,0,16.4-.11c-6.19-4-13,0-17.62-4.5.11-5.07,5.17-6.6,6.81-10.45a9.4,9.4,0,0,0,.1-1.35c-.33-5.62.72-7.2,5.77-8.31,7.21-1.58,14.42-3,21.89-2.13a53.68,53.68,0,0,0,6.47,0A27.75,27.75,0,0,0,650.78,174Z"/><path class="cls-1" d="M64.14,20c3.89.81,8,1.56,12,2.53,3.3.8,6.83.86,9.76,2.91,4-1.42,7.68.81,11.56,1,10.31.51,20.6,1.45,30.91,2.2l38.25,2.73c6.12.43,12.27.58,18.36,1.31,4.94.6,9.56.6,14.39-1.16,3.37-1.22,7.54-2.46,10.3,2,.37.61,1.8.75,2.75.78,5.15.16,10.3.25,15.45.3a30.32,30.32,0,0,0,5.88-.3c1.06-.2,2-1.74,2.93-1.74s1.78,1.42,2.82,1.84a8.46,8.46,0,0,0,2.91.21c6.38.12,12.76.14,19.14.37,13.51.47,27,1.16,40.53,1.54,10.56.29,21.13.22,31.7.38,13.74.21,27.48.55,41.22.72q41,.51,81.89.81c4.13,0,8.51-.12,12.32-1.46a32,32,0,0,1,7.6-2.13,7.62,7.62,0,0,0,3.46-1c3.26-2.28,6.9-2.28,10.62-2.23,2.77,0,5.63.56,8.38-.47-.61-2.44-2.33-2.25-3.65-2.15-7,.52-13.34-3.29-20.29-3.18-.86,0-1.72-.87-2.61-1.26-1.1-.49-2.25-1.29-3.37-1.27-4.42.08-6.15-2.24-6.39-6.33a8.34,8.34,0,0,0-1.16-2.6c-1.45-.11-2.66-.28-3.88-.27-3.76,0-7.21-.42-10.25-3.19-1.26-1.14-3.64-1.36-5.52-1.43-20.88-.74-41.76-1.34-62.64-2-3.66-.12-7.45,0-10.93-.91A29.73,29.73,0,0,0,357.68,6a141.25,141.25,0,0,1-22.05.82,99.6,99.6,0,0,0-11.06-.17c-10.8.62-21.61.16-32.41,0-12.28-.14-24.56-.68-36.84-1.1-8.34-.29-16.67-.82-25-1-6.36-.11-12.74-.68-19.1.72a18.77,18.77,0,0,1-8.78.13c-5.21-1.47-10.2-.84-15.31,0a23.85,23.85,0,0,1-5.14.2c-18.67-.92-37.34-1.83-56-2.83-9.32-.5-18.63-1.29-28-1.74C93,.83,88,1,83,1c6.92,2.1,14.17,1.8,22,3.62-3.07,3-6.46.88-9.1,2.56-.63.68-.7,3.74-2.35,2-2-2.12-3.59-2.89-6.07-1.59-3,1.6-6.2,1-9.35.59-2.68-.35-5.34-.86-8-1.09-.84-.07-2.35.35-2.51.86-.7,2.32-2.42,2.07-4.13,2.09-3.11,0-6.25-1-10.38.4l9.39,3.42C63,16,63.53,17.81,64.14,20Z"/><path class="cls-1" d="M379.58,296.65a18.17,18.17,0,0,0,3.12-1.56,18.65,18.65,0,0,0,3.56-3.54c.27-.37-.35-1.88-.95-2.29a5.78,5.78,0,0,0-2.83-.52c-9.58-.52-19.16-1-28.73-1.52-31.92-1.87-63.84-3.68-95.74-5.71-12.75-.81-25.48-2.07-38.21-3.26-13.21-1.22-26.4-2.68-39.61-3.89q-21.27-2-42.57-3.62c-17.9-1.38-35.81-2.63-53.72-3.88-10.06-.71-20.12-1.43-30.19-1.92a133.77,133.77,0,0,1-25.4-4c-1.17-.29-2.38-.47-3.56-.69-1.27,1-2.29,2.19-3.59,2.68a18.86,18.86,0,0,1-4.67.62c.27,3,.12,4.25-.61,5.15-2.27,2.79-4.56,5.57-7,8.59,1.14,1.12,1.83,2.34,2.82,2.67a31,31,0,0,0,7.14,1.59c8.82.72,17.65,1.28,26.48,1.86,21.09,1.39,42.18,2.85,63.27,4.09,12,.71,24.07.8,36.08,1.59,15.43,1,30.84,2.43,46.25,3.77,12,1.05,24,2.46,36,3.34,17.41,1.28,34.85,2.21,52.27,3.3,11.53.72,23.06,1.49,34.59,2.16,4.67.28,9.5,1.19,14,.33,6.93-1.32,13.69-.4,20.54-.24,12.79.31,25.58.42,38.37.6,1,0,1.93-.19,2-1.78C386.14,298.49,381.6,301,379.58,296.65Z"/><path class="cls-1" d="M113.06,41.43h-4.37v.22H113Z"/><path class="cls-1" d="M77.52.15C77.08.1,76.63,0,76.19,0c-.1,0-.21.23-.31.36a12.18,12.18,0,0,0,1.35.19C77.31.56,77.42.3,77.52.15Z"/><path class="cls-1" d="M0,152.2a5.3,5.3,0,0,0,.87.48c.07,0,.26-.26.4-.4L.64,152Z"/></g></g></svg>