<svg xmlns="http://www.w3.org/2000/svg" viewBox="0 0 96.35 44.08"><defs><style>.cls-1{fill:#8b8b8b;}</style></defs><title>Asset 2</title><g id="Layer_2" data-name="Layer 2"><g id="Layer_1-2" data-name="Layer 1"><path class="cls-1" d="M87.63,7.38c.1.38.21.76.31,1.14a.43.43,0,0,1-.34.57c-.24.05-.49.08-.84.13.13.16.19.28.28.33.28.14.57.24.89.37-.41.46-.37,1.17-1.17,1.24l.69.52-.55.43.37.42-.73.9c-1.72.16-3.47.29-5.23.33l-2.15,0a.64.64,0,0,0-.54.29,5.72,5.72,0,0,0,.8.09l4.4-.06a6.11,6.11,0,0,1,1,.07c.84.15,1.67.32,2.51.48,0,.09,0,.19-.08.2-.43.16-.87.3-1.38.47.08.13.13.28.22.34.53.34.88.93,1.53,1.13.11,0,.19.29.2.45s-.17.26-.35.34c-.54.24-1.07.47-1.63.66-.14.05-.31.07-.39.16-.74.88-1.78.8-2.76.87-.79.06-1.58,0-2.37,0a22.94,22.94,0,0,0-4.06.32c.15.13.23.27.32.28a43.17,43.17,0,0,0,6.33.21,13.85,13.85,0,0,0,1.8-.23l2.22-.3s0,0,.2.18a1.15,1.15,0,0,1-.29.11c-.29,0-.58,0-.86,0a2.19,2.19,0,0,0-.82.18,2.94,2.94,0,0,1-1.56.33c-.79,0-1.57,0-2.36,0a1.36,1.36,0,0,0-.52.12c-.07,0-.11.15-.13.24s.07.14.12.15a2.34,2.34,0,0,0,.53.08c1.29,0,2.58,0,3.87-.07a2.31,2.31,0,0,1,1.22.18,2.07,2.07,0,0,0,.54,1.34c1.42.23,3,0,4.4.64a1.46,1.46,0,0,1,0,.29,2.82,2.82,0,0,1-.07.31s-.06.06-.09.06c-1.75,0-3.49.05-5.25.12a7.26,7.26,0,0,0,2,.36l3,.2a1.43,1.43,0,0,1,1,.3.5.5,0,0,0,.28.14,19.52,19.52,0,0,0,2.75.48,4.05,4.05,0,0,1,1.46.3c-.32,0-.63,0-.94,0a9.09,9.09,0,0,0-3.2.31c-.73.16-.89.39-.84,1.21a1.09,1.09,0,0,1,0,.19c-.24.57-1,.79-1,1.53.68.65,1.67.07,2.57.65a21.48,21.48,0,0,1-2.39,0c-.5,0-1,0-1.5,0s-.93,0-1.39,0a2.59,2.59,0,0,0-.63.09c-.08,0-.14.15-.16.25s0,.15.1.17a2,2,0,0,0,.6.18c.9.06,1.79.08,2.69.13.21,0,.41.05.65.07,0,.16-.07.25-.09.35,0,.34,0,.56.28.6a12.62,12.62,0,0,1,2,.68,7.06,7.06,0,0,0,1.6.14l.49.07c-.28.31-.58.23-.83.31a5.51,5.51,0,0,0-.78.37l-.06.66c-1.21.1-2.43-.33-3.67.12l-.27.89c.11.09.18.19.27.22.31.08.62.16.93.21a4.55,4.55,0,0,1,1.86.46,3.11,3.11,0,0,0,1,.16,4.53,4.53,0,0,1,.44.12,2.35,2.35,0,0,1-1.5.24c-.46,0-.93,0-1.4,0a3.65,3.65,0,0,0-1.55.14c0,.19.11.38.15.58a4.23,4.23,0,0,1,.06.58,2.1,2.1,0,0,0,1.2.55,3.35,3.35,0,0,1,.87.37c.12.07.13.3.22.53-.32,0-.56.06-.8,0l-10.75-.28c-.68,0-1.36,0-2,0-1.15,0-2.3,0-3.44,0-1.83-.08-3.66-.21-5.48-.31-.57,0-1.15,0-1.72,0-1.75-.09-3.51-.2-5.26-.31a6.17,6.17,0,0,0-1.82,0l-.53.19a4.26,4.26,0,0,0,.48.17,61.1,61.1,0,0,0,6.75.61c1.54.07,3.08.2,4.62.28l7.74.37,4.65.25c-.09.07-.14.15-.18.15a4.64,4.64,0,0,0-1.89.3,4.91,4.91,0,0,1-1.9.22l-2.47-.08c-.21,0-.43,0-.64,0a.94.94,0,0,0-.82.44,2.29,2.29,0,0,0-.06.77,11.51,11.51,0,0,1-2.42,0c-1.94-.06-3.87-.21-5.81-.29-.89,0-1.79,0-2.68,0s-1.8,0-2.69-.1c-2.11-.19-4.23-.16-6.34-.2q-3.93-.09-7.84-.36c-1.68-.12-3.37-.15-5.05-.25-3.26-.19-6.52-.27-9.77-.64-1.67-.19-3.37-.15-5.05-.23-2.73-.13-5.45-.26-8.17-.42a9.92,9.92,0,0,1-2.95-.59,3.36,3.36,0,0,0-.84-.15l-5.37-.34c-1.61-.1-3.23-.15-4.83-.29-1.22-.1-2.42-.3-3.63-.47a3.59,3.59,0,0,1-.68-.21c-.17-.63.36-.72.72-1-.07-.17-.12-.33-.2-.49a.89.89,0,0,1,.23-1,1.59,1.59,0,0,0,.07-.46H4.8c-.16-.37-.46-.25-.68-.33a4.33,4.33,0,0,0-.73-.18,2.12,2.12,0,0,1-1.14-.56,1.38,1.38,0,0,1-.16-.27l.41-.36c-.56-.43-1.22-.15-1.85-.34a1.67,1.67,0,0,1,.16-.38c.15-.2.59-.12.55-.54l.72-.16c-.63-.44-1.35-.68-1.46-1.5.19,0,.5,0,.62-.13a.73.73,0,0,1,1-.11A1.46,1.46,0,0,0,4,29.23a3.44,3.44,0,0,1,.47-.2L4,28.61l.94-.37A16.64,16.64,0,0,1,2,27.46c0-.28.16-.27.29-.26l3.74.43a6.06,6.06,0,0,0,2.64-.2c-1-.25-2-.26-3-.46s-2-.43-3-.64c-.06-.4.15-.54.43-.52.6,0,1.21.11,1.81.19,1.38.19,2.77.4,4.15.58a2.38,2.38,0,0,0,1-.1,3.09,3.09,0,0,0-.59-.18c-1.6-.18-3.21-.33-4.81-.51-.39-.05-.77-.17-1.16-.23-.67-.1-1.34-.18-2-.26-.05-.22,0-.31.2-.3,1.35.1,2.7.28,4,.45a43,43,0,0,0,5.79.45c.89,0,1.78.15,2.67.22a2.19,2.19,0,0,0,.87-.07,1.29,1.29,0,0,0-.43-.2c-.39,0-.78-.05-1.18-.06-2.08-.05-4.13-.37-6.2-.58-1.26-.13-2.45-.52-3.69-.71a1.78,1.78,0,0,1-.51-.16,2.44,2.44,0,0,0-1.54-.28,3.31,3.31,0,0,1-.3.34A.42.42,0,0,1,1,24.23a5.58,5.58,0,0,1-.17-.56h.72l.76,0c.23,0,.49.19.68-.11a4.77,4.77,0,0,0-2.36-1c.13-.14.18-.24.25-.25s.42,0,.43-.36c0-.11.13-.23.22-.33a.54.54,0,0,0-.08-.84c-.05,0-.05-.13-.1-.27l.39-.18-.12-.65c.21-.22.36-.27,1.27-.43l.28-.68-.62-.83c.36-.26.71-.53.53-1a1.13,1.13,0,0,0-1-.8,1.44,1.44,0,0,1-.73-.2l.77-.07a4.57,4.57,0,0,0,.74-.12.81.81,0,0,0,.65-.87,3,3,0,0,1,0-.73.48.48,0,0,0-.25-.54A8.07,8.07,0,0,0,2.5,13c0-.44.38-.66.54-1l1.8-.08.39-.55,1.71-.27a2.68,2.68,0,0,0-.4-.49A3.36,3.36,0,0,1,9.45,10c1.41.24,2.84.37,4.26.54a.8.8,0,0,0,.75-.21A3.77,3.77,0,0,0,13,10a32.13,32.13,0,0,1-4.37-.5,3.51,3.51,0,0,1-1.58-.71,4.23,4.23,0,0,0,.73-.21,2.56,2.56,0,0,0,.48-.39A45,45,0,0,0,14.83,9c.89,0,1.78-.06,2.67,0q4.37.25,8.71.43c1.79.08,3.58.09,5.37.12,0-.3-.21-.32-.38-.33-1,0-2-.07-3-.09a4.46,4.46,0,0,1-1.48-.21,6.78,6.78,0,0,0-1.38-.15c-.18,0-.35-.06-.35-.31.39-.38.9,0,1.33-.18.07-.17,0-.31-.16-.3-1.4,0-2.78-.17-4.17-.23a9.29,9.29,0,0,1-3.55-.63.36.36,0,0,1,.12-.55s-.05-.19-.08-.3c.46-.17,1,.07,1.62-.18A5.62,5.62,0,0,0,19,5.83c-1.48.09-2.92-.34-4.39-.34a2.73,2.73,0,0,1-.94-.16,12.56,12.56,0,0,0-3.36-.69,7.14,7.14,0,0,1-1.36-.28,3.91,3.91,0,0,1,1.52-.09c1.18.13,2.35.27,3.53.37s2.43.15,3.65.23c.93.07,1.86.18,2.79.23,2.18.1,4.36.24,6.55.18a3.09,3.09,0,0,1,.43,0,22.77,22.77,0,0,0,3.2.12c1.8,0,3.59.06,5.38.11,3.19.08,6.39.19,9.58.26,4,.09,8,.07,12,.25,2.87.14,5.74.12,8.6.32.41,0,.84,0,1.16.39.11.15.47.16.71.16,1.51,0,3,.05,4.51.07.58,0,1.15,0,1.72,0,.79,0,1.58-.1,2.36-.12l6.24-.12c.61,0,1.22-.08,1.83-.1a6.15,6.15,0,0,1,1,0A2.09,2.09,0,0,1,87.63,7.38Zm-57.06-1h-.63c-.82,0-1.65,0-2.47,0-2.07-.11-4.15-.25-6.22-.37-.18,0-.36,0-.32.33A73.83,73.83,0,0,0,30.57,6.38ZM14.12,35.58c.58.09,1.16.18,1.74.25a3.87,3.87,0,0,0,.58,0A3.79,3.79,0,0,0,14.12,35.58ZM76.9,20.74l0-.1H75.16v.1ZM32.35,6.54V6.43l-.51,0v.09ZM11.25,35.28l-.18.06s0,.07.06.07a1.21,1.21,0,0,0,.19,0Zm68-14.64v.07h.17v-.06Zm-5.85-.82h-.09l.08.07ZM44.53,6.89v.05l.07,0ZM77.84,14s0-.06-.06-.06l-.16.05s0,.07.06.06Zm-3.48,5.86s0-.05,0-.06l-.09,0,0,.11Zm3.34.86.08,0-.08,0Zm.65,0,.08,0s0,0,0-.06l-.08,0S78.36,20.69,78.35,20.71ZM12,35.34l-.08,0v.11s.06,0,.08,0S12,35.36,12,35.34ZM9.35,2.92,9.1,2l-1.36-.5a4.14,4.14,0,0,1,1.51-.06c.25,0,.5,0,.6-.31,0-.07.24-.13.37-.12.39,0,.78.11,1.17.16a2.18,2.18,0,0,0,1.36-.09c.36-.19.6-.08.89.23s.25-.19.34-.29c.38-.24.88.07,1.33-.37C14.17.41,13.11.46,12.1.15c.73,0,1.46,0,2.19,0,1.36.06,2.72.18,4.08.25,2.72.15,5.44.28,8.16.41a3.74,3.74,0,0,0,.75,0,5.08,5.08,0,0,1,2.23,0,2.77,2.77,0,0,0,1.28,0,11.86,11.86,0,0,1,2.79-.1c1.22,0,2.43.1,3.65.14C39,.87,40.81,1,42.6,1c1.57,0,3.15.08,4.73,0a14.46,14.46,0,0,1,1.61,0A20.28,20.28,0,0,0,52.15.87a4.33,4.33,0,0,1,1.6.08,6.45,6.45,0,0,0,1.59.13c3,.11,6.09.19,9.13.3a1.35,1.35,0,0,1,.81.21,2,2,0,0,0,1.49.47c.18,0,.36,0,.57,0a1.54,1.54,0,0,1,.17.38c0,.6.29.94.93.93a1.22,1.22,0,0,1,.49.18c.13.06.26.19.38.18,1,0,1.94.54,3,.47.19,0,.44,0,.53.31a3.35,3.35,0,0,1-1.22.07A2.43,2.43,0,0,0,70,4.94a1.16,1.16,0,0,1-.5.14,4.83,4.83,0,0,0-1.11.31,5.4,5.4,0,0,1-1.8.22L54.68,5.49l-6-.11c-1.54,0-3.08,0-4.62,0-2-.06-3.94-.16-5.91-.23-.93,0-1.86,0-2.79,0a1.44,1.44,0,0,1-.42,0c-.16-.06-.28-.27-.42-.27s-.27.22-.42.25a4.1,4.1,0,0,1-.86,0c-.75,0-1.5,0-2.25,0-.14,0-.35,0-.4-.11-.41-.65-1-.47-1.51-.29A4.37,4.37,0,0,1,27,4.77c-.89-.11-1.79-.13-2.68-.19l-5.58-.4c-1.5-.11-3-.25-4.51-.32-.56,0-1.1-.35-1.68-.15a3.76,3.76,0,0,0-1.42-.42C10.52,3.15,9.92,3,9.35,2.92ZM35.44,4.71c.87,0,1.76.36,2.64,0ZM32,.84c-.06,0-.11-.08-.17-.08s-.1.06-.14.09a.37.37,0,0,0,.16.07C31.89.92,31.94.87,32,.84Zm.67,3.72-.17,0s0,0,0,.07a1,1,0,0,0,.17,0S32.64,4.58,32.66,4.56ZM55.8,43a2.56,2.56,0,0,0,.52-.52s0-.27-.14-.33a.77.77,0,0,0-.41-.08l-4.19-.22q-7-.41-14-.83c-1.86-.12-3.72-.31-5.57-.48s-3.85-.39-5.78-.57-4.13-.36-6.2-.52c-2.61-.2-5.23-.39-7.84-.57-1.46-.1-2.93-.21-4.4-.28A19.28,19.28,0,0,1,4.13,38l-.52-.1a2.82,2.82,0,0,1-.52.39,2.61,2.61,0,0,1-.69.09c0,.44,0,.62-.08.75l-1,1.25c.17.17.27.35.41.4a4.73,4.73,0,0,0,1,.23l3.86.27c3.08.2,6.15.41,9.23.59,1.75.11,3.51.12,5.26.24,2.25.15,4.5.35,6.74.55,1.75.15,3.5.35,5.25.48,2.54.19,5.08.32,7.62.48l5,.32a8.75,8.75,0,0,0,2,.05,13.69,13.69,0,0,1,3,0c1.86,0,3.73.06,5.59.09.15,0,.28,0,.29-.26-.36-.3-1,.06-1.31-.57A2.09,2.09,0,0,0,55.8,43ZM16.48,6h-.63v0h.62ZM11.11,0s0,0,0,.05a1.38,1.38,0,0,0,.2,0s0,0,0-.06ZM0,22.19a.33.33,0,0,0,.13.07s0,0,0-.06l-.09,0Z"/></g></g></svg>